<?xml version="1.0" standalone="no"?>
<!DOCTYPE svg PUBLIC "-//W3C//DTD SVG 20010904//EN"
 "http://www.w3.org/TR/2001/REC-SVG-20010904/DTD/svg10.dtd">
<svg version="1.0" xmlns="http://www.w3.org/2000/svg"
 width="512.000000pt" height="512.000000pt" viewBox="0 0 512.000000 512.000000"
 preserveAspectRatio="xMidYMid meet">
<metadata>
Created by potrace 1.14, written by Peter Selinger 2001-2017
</metadata>
<g transform="translate(0.000000,512.000000) scale(0.100000,-0.100000)"
fill="#000000" stroke="none">
<path d="M888 4561 c-149 -48 -263 -170 -304 -326 -20 -74 -20 -3276 0 -3350
42 -158 156 -279 307 -326 59 -18 117 -19 1584 -19 1029 0 1549 3 1602 11 86
12 241 52 284 74 68 35 156 171 178 273 16 75 16 3249 0 3324 -34 158 -155
291 -310 339 -59 18 -118 19 -1672 18 -1535 0 -1615 -1 -1669 -18z m3312 -192
c55 -25 105 -71 133 -124 l22 -40 0 -1645 0 -1645 -22 -40 c-28 -53 -78 -99
-133 -124 -45 -20 -57 -21 -1640 -21 -1583 0 -1595 1 -1640 21 -55 25 -105 71
-133 124 l-22 40 0 1645 0 1645 22 40 c28 53 78 99 133 124 45 20 57 21 1640
21 1583 0 1595 -1 1640 -21z"/>
<path d="M1150 3025 l0 -1035 255 0 255 0 2 421 3 421 275 -421 275 -421 288
0 287 0 -344 516 -344 516 92 142 c51 77 206 311 344 519 l252 377 -287 0
-288 0 -275 -421 -275 -421 -3 421 -2 421 -255 0 -255 0 0 -1035z"/>
</g>
</svg>
